<svg width="80" height="80" viewBox="0 0 80 80" fill="none" xmlns="http://www.w3.org/2000/svg">
<path d="M40 80C62.0914 80 80 62.0914 80 40C80 17.9086 62.0914 0 40 0C17.9086 0 0 17.9086 0 40C0 62.0914 17.9086 80 40 80Z" fill="white"/>
<path d="M45.0915 30.2014H34.0413V50.054H45.0915V30.2014Z" fill="#FF5A00"/>
<path d="M34.7774 40.1275C34.7774 36.0941 36.6736 32.5143 39.5832 30.2013C37.4418 28.5176 34.7407 27.5 31.7942 27.5C24.8143 27.5 19.1667 33.1477 19.1667 40.1275C19.1667 47.1074 24.8143 52.7551 31.7942 52.7551C34.7407 52.7551 37.4418 51.7375 39.5832 50.0538C36.6695 47.7735 34.7774 44.161 34.7774 40.1275Z" fill="#EB001B"/>
<path d="M59.9999 40.1276C59.9999 47.1074 54.3523 52.7551 47.3723 52.7551C44.4259 52.7551 41.7247 51.7375 39.5833 50.0538C42.5298 47.7368 44.3892 44.161 44.3892 40.1276C44.3892 36.0941 42.493 32.5143 39.5833 30.2013C41.7206 28.5176 44.4218 27.5 47.3683 27.5C54.3523 27.5 59.9999 33.1844 59.9999 40.1276Z" fill="#F79E1B"/>
</svg>
