<svg width="80" height="80" viewBox="0 0 80 80" fill="none" xmlns="http://www.w3.org/2000/svg">
<path d="M40 80C62.0914 80 80 62.0914 80 40C80 17.9086 62.0914 0 40 0C17.9086 0 0 17.9086 0 40C0 62.0914 17.9086 80 40 80Z" fill="white"/>
<path d="M33.0371 46.633L35.2621 33.5999H38.8212L36.5944 46.633H33.0371ZM49.4519 33.8809C48.747 33.6169 47.6419 33.3335 46.2623 33.3335C42.7457 33.3335 40.2685 35.1011 40.2476 37.6346C40.2276 39.5073 42.016 40.552 43.3658 41.1755C44.7512 41.8142 45.2167 42.2216 45.2102 42.7921C45.2015 43.6657 44.104 44.0649 43.0812 44.0649C41.6566 44.0649 40.8999 43.8673 39.7312 43.3807L39.2725 43.1736L38.7731 46.0912C39.6043 46.455 41.1415 46.7701 42.7374 46.7864C46.4784 46.7864 48.9068 45.0391 48.9346 42.3337C48.9479 40.8511 47.9998 39.7229 45.9465 38.7927C44.7026 38.1898 43.9407 37.7874 43.9488 37.177C43.9488 36.6353 44.5937 36.0559 45.9869 36.0559C47.1507 36.0379 47.9938 36.2913 48.6506 36.5552L48.9696 36.7057L49.4519 33.8809ZM58.6101 33.5998H55.86C55.0081 33.5998 54.3705 33.8319 53.9964 34.6806L48.7111 46.6243H52.4482C52.4482 46.6243 53.0592 45.0183 53.1974 44.6658C53.6059 44.6658 57.2362 44.6714 57.7553 44.6714C57.8617 45.1276 58.1881 46.6243 58.1881 46.6243H61.4905L58.6101 33.5998ZM54.2468 42.0157C54.5412 41.2648 55.6648 38.3724 55.6648 38.3724C55.6438 38.4072 55.9569 37.6178 56.1366 37.1285L56.3771 38.2522C56.3771 38.2522 57.0586 41.3633 57.2011 42.0157H54.2468ZM30.0158 33.5998L26.5316 42.4877L26.1603 40.6815C25.5117 38.5994 23.4907 36.3437 21.2315 35.2143L24.4174 46.6122L28.1828 46.6079L33.7856 33.5996L30.0158 33.5998Z" fill="#1E589A"/>
<path d="M23.2841 33.599H17.5454L17.5 33.8701C21.9645 34.9489 24.9187 37.556 26.1453 40.6882L24.8974 34.6989C24.6819 33.8738 24.0571 33.6278 23.2841 33.599Z" fill="#F2AE14"/>
</svg>
