<svg width="67" height="67" viewBox="0 0 67 67" fill="none" xmlns="http://www.w3.org/2000/svg">
<path d="M33.5 67C52.0015 67 67 52.0015 67 33.5C67 14.9985 52.0015 0 33.5 0C14.9985 0 0 14.9985 0 33.5C0 52.0015 14.9985 67 33.5 67Z" fill="white"/>
<path opacity="0.1" d="M48.8531 40.484C48.8531 43.1072 46.7132 45.2431 44.0854 45.2431H18.1447V26.3943C18.1447 23.7712 20.2845 21.6353 22.9124 21.6353H48.8531V40.484Z" fill="white"/>
<path d="M40.4079 35.6502H42.3789C42.4351 35.6502 42.5666 35.6315 42.6229 35.6315C42.9983 35.5565 43.3174 35.2193 43.3174 34.7509C43.3174 34.3013 42.9983 33.964 42.6229 33.8703C42.5666 33.8516 42.4539 33.8516 42.3789 33.8516H40.4079V35.6502Z" fill="url(#paint0_linear_128_1479)"/>
<path d="M42.1521 23.228C40.2751 23.228 38.7359 24.7458 38.7359 26.6381V30.1793H43.5599C43.6725 30.1793 43.8039 30.1793 43.8978 30.198C44.9864 30.2542 45.7936 30.8163 45.7936 31.7906C45.7936 32.5587 45.2492 33.2146 44.2356 33.3457V33.3832C45.3431 33.4581 46.1878 34.0764 46.1878 35.032C46.1878 36.0625 45.2492 36.737 44.0103 36.737H38.7172V43.6695H43.7289C45.6058 43.6695 47.1451 42.1518 47.1451 40.2594V23.228H42.1521Z" fill="#1D963B"/>
<path d="M43.0734 32.0153C43.0734 31.5656 42.7543 31.2659 42.3789 31.2096C42.3413 31.2096 42.2474 31.1909 42.1912 31.1909H40.4079V32.8396H42.1912C42.2474 32.8396 42.3601 32.8396 42.3789 32.821C42.7543 32.7647 43.0734 32.465 43.0734 32.0153Z" fill="url(#paint1_linear_128_1479)"/>
<path d="M23.2705 23.228C21.3935 23.228 19.8543 24.7458 19.8543 26.6381V35.0507C20.8116 35.5191 21.8064 35.8189 22.8012 35.8189C23.9838 35.8189 24.622 35.1069 24.622 34.1326V30.1605H27.5501V34.1139C27.5501 35.6503 26.5928 36.9056 23.3456 36.9056C21.3747 36.9056 19.8355 36.4747 19.8355 36.4747V43.6507H24.8472C26.7243 43.6507 28.2634 42.133 28.2634 40.2406V23.228H23.2705Z" fill="#015096"/>
<path d="M32.7115 23.228C30.8344 23.228 29.2953 24.7458 29.2953 26.6381V31.0974C30.1587 30.3666 31.6603 29.8982 34.0817 30.0106C35.3769 30.0669 36.7659 30.4229 36.7659 30.4229V31.8656C36.0714 31.5096 35.2455 31.1911 34.1755 31.116C32.336 30.985 31.2286 31.8843 31.2286 33.4581C31.2286 35.0507 32.336 35.9501 34.1755 35.8001C35.2455 35.7252 36.0714 35.388 36.7659 35.0507V36.4934C36.7659 36.4934 35.3956 36.8494 34.0817 36.9056C31.6603 37.018 30.1587 36.5497 29.2953 35.8189V43.6882H34.307C36.1839 43.6882 37.7232 42.1705 37.7232 40.2782V23.228H32.7115Z" fill="#B91A33"/>
<defs>
<linearGradient id="paint0_linear_128_1479" x1="38.7343" y1="34.7532" x2="47.1692" y2="34.7532" gradientUnits="userSpaceOnUse">
<stop stop-color="#007940"/>
<stop offset="0.229" stop-color="#00873F"/>
<stop offset="0.743" stop-color="#40A737"/>
<stop offset="1" stop-color="#5CB531"/>
</linearGradient>
<linearGradient id="paint1_linear_128_1479" x1="38.734" y1="32.0128" x2="47.1692" y2="32.0128" gradientUnits="userSpaceOnUse">
<stop stop-color="#007940"/>
<stop offset="0.229" stop-color="#00873F"/>
<stop offset="0.743" stop-color="#40A737"/>
<stop offset="1" stop-color="#5CB531"/>
</linearGradient>
</defs>
</svg>
