<svg width="63" height="63" viewBox="0 0 63 63" fill="none" xmlns="http://www.w3.org/2000/svg">
<path d="M31.5 63C48.897 63 63 48.897 63 31.5C63 14.103 48.897 0 31.5 0C14.103 0 0 14.103 0 31.5C0 48.897 14.103 63 31.5 63Z" fill="white"/>
<path fill-rule="evenodd" clip-rule="evenodd" d="M27.3883 28.1306C27.9182 28.1306 28.3626 28.2376 28.9035 28.4958V29.8602C28.3911 29.3886 27.9467 29.1912 27.359 29.1912C26.2038 29.1912 25.2953 30.0917 25.2953 31.2332C25.2953 32.437 26.1756 33.2838 27.4164 33.2838C27.9748 33.2838 28.411 33.0967 28.9035 32.6328V33.9978C28.3434 34.246 27.8894 34.3441 27.359 34.3441C25.4834 34.3441 24.0259 32.9891 24.0259 31.2416C24.0259 29.513 25.5222 28.1306 27.3883 28.1306ZM21.5646 28.1682C22.257 28.1682 22.8905 28.3913 23.4202 28.8275L22.7757 29.6219C22.4549 29.2834 22.1515 29.1405 21.7824 29.1405C21.2515 29.1405 20.8649 29.4251 20.8649 29.7995C20.8649 30.1206 21.0819 30.2905 21.821 30.548C23.2221 31.0304 23.6374 31.4581 23.6374 32.4025C23.6374 33.5535 22.7394 34.3547 21.4594 34.3547C20.5221 34.3547 19.8407 34.0072 19.2731 33.223L20.0688 32.5016C20.3524 33.0179 20.8257 33.2945 21.4132 33.2945C21.9627 33.2945 22.3695 32.9375 22.3695 32.4559C22.3695 32.2062 22.2463 31.9921 22.0003 31.8407C21.8764 31.7691 21.631 31.6622 21.1487 31.5021C19.9919 31.1101 19.595 30.6909 19.595 29.8719C19.595 28.899 20.4474 28.1682 21.5646 28.1682ZM35.6403 28.2718H36.9859L38.6699 32.2652L40.3758 28.2718H41.7111L38.9829 34.3696H38.3201L35.6403 28.2718ZM11.8125 28.281H13.6205C15.6182 28.281 17.0107 29.5032 17.0107 31.2578C17.0107 32.1327 16.5847 32.9786 15.8643 33.54C15.2581 34.0138 14.5674 34.2263 13.611 34.2263H11.8125V28.281ZM17.5775 28.281H18.8092V34.2263H17.5775V28.281ZM42.268 28.281H45.7612V29.2884H43.4989V30.608H45.6779V31.6149H43.4989V33.2198H45.7612V34.2263H42.268V28.281ZM46.5771 28.281H48.4034C49.824 28.281 50.6381 28.9232 50.6381 30.0363C50.6381 30.9466 50.1275 31.5439 49.1997 31.7217L51.1875 34.2263H49.6727L47.9679 31.8379H47.8074V34.2263H46.5771V28.281ZM47.8074 29.2174V31.0179H48.1672C48.9538 31.0179 49.3707 30.6964 49.3707 30.0988C49.3707 29.5202 48.9537 29.2174 48.1867 29.2174H47.8074ZM13.0434 29.2884V33.2198H13.3739C14.1699 33.2198 14.6726 33.0762 15.0596 32.7472C15.4855 32.3901 15.7418 31.8198 15.7418 31.2492C15.7418 30.6796 15.4855 30.1263 15.0596 29.7691C14.6527 29.4226 14.1699 29.2884 13.3739 29.2884H13.0434Z" fill="#253556"/>
<path fill-rule="evenodd" clip-rule="evenodd" d="M32.6638 28.0899C34.5193 28.0899 36.0233 29.5039 36.0233 31.2507V31.2527C36.0233 32.9996 34.5193 34.4155 32.6639 34.4155C30.8085 34.4155 29.3044 32.9995 29.3044 31.2527V31.2507C29.3044 29.5039 30.8084 28.0899 32.6638 28.0899Z" fill="#F47216"/>
</svg>
