<svg width="36" height="36" viewBox="0 0 36 36" fill="none" xmlns="http://www.w3.org/2000/svg">
<path d="M7 8C7.55228 8 8 7.55228 8 7C8 6.44772 7.55228 6 7 6C6.44772 6 6 6.44772 6 7C6 7.55228 6.44772 8 7 8Z" fill="white"/>
<path d="M12 8C12.5523 8 13 7.55228 13 7C13 6.44772 12.5523 6 12 6C11.4477 6 11 6.44772 11 7C11 7.55228 11.4477 8 12 8Z" fill="white"/>
<path d="M17 8C17.5523 8 18 7.55228 18 7C18 6.44772 17.5523 6 17 6C16.4477 6 16 6.44772 16 7C16 7.55228 16.4477 8 17 8Z" fill="white"/>
<rect x="0.75" y="1.75" width="34.5" height="31.5" rx="5.25" stroke="white" stroke-width="1.5"/>
<path d="M1 12.5H34.5" stroke="white" stroke-width="1.5"/>
<path d="M18.7785 16.8265C18.8984 16.3792 19.3716 16.1266 19.8099 16.2759C20.2088 16.4118 20.4341 16.8338 20.325 17.2408L17.6345 27.2821C17.5146 27.7294 17.0414 27.982 16.6031 27.8326C16.2042 27.6967 15.9789 27.2748 16.088 26.8677L18.7785 16.8265Z" fill="white"/>
<path d="M13 19L10.7071 21.2929C10.3166 21.6834 10.3166 22.3166 10.7071 22.7071L13 25" stroke="white" stroke-width="1.5" stroke-linecap="round"/>
<path d="M23 19L25.2929 21.2929C25.6834 21.6834 25.6834 22.3166 25.2929 22.7071L23 25" stroke="white" stroke-width="1.5" stroke-linecap="round"/>
</svg>
