<svg width="36" height="36" viewBox="0 0 36 36" fill="none" xmlns="http://www.w3.org/2000/svg">
<g clip-path="url(#clip0_15_208)">
<circle cx="18" cy="18" r="17.25" stroke="white" stroke-width="1.5"/>
<path d="M18 0C8.0745 0 0 8.0745 0 18C0 27.9255 8.0745 36 18 36C27.9255 36 36 27.9255 36 18C36 8.0745 27.9255 0 18 0ZM15.924 35C7.653 35 1 26.136 1 17.865C1 15.624 2.115 11.8215 3 9.909L6.879 14.346C7.2765 14.763 7.827 15 8.403 15H11.3265C11.7585 15 12.1725 15.171 12.4785 15.477L13.038 16.0365C13.335 16.3335 13.5015 16.7355 13.5015 17.154V18.5985C13.5015 19.176 13.731 19.728 14.139 20.136L15.924 21.921C16.2945 22.2915 16.503 22.794 16.503 23.3175V26.865C16.503 27.768 17.235 28.5 18.138 28.5H18.4575C19.095 28.5 19.674 28.1295 19.941 27.5505L23.3025 20.2665C23.703 19.3995 23.3955 18.372 22.587 17.865L18.744 15.4635C18.2595 15.1605 17.7 15 17.1285 15H14.982C14.5155 15 14.067 14.814 13.737 14.484L12.849 13.596C12.381 13.128 12.381 12.3705 12.849 11.904L13.6425 11.1105C14.007 10.746 14.5635 10.656 15.024 10.887L16.344 11.547C16.8855 11.8185 17.541 11.712 17.97 11.283L17.9745 11.2785C18.432 10.821 18.519 10.1115 18.186 9.558L16.9305 7.464C16.668 7.026 16.674 6.483 16.9515 6.054C17.3955 5.3685 16.344 2.5 19 0.5C23.908 0.8 29.986 5.091 32.5 9L28.242 11.2845C27.507 11.7075 27.1425 12.567 27.3495 13.389L28.29 17.1495C28.425 17.6895 28.7895 18.1425 29.2875 18.39L35 20.136C33.9515 27.3885 27.4785 35 19.941 35H15.924Z" fill="white"/>
</g>
<defs>
<clipPath id="clip0_15_208">
<rect width="36" height="36" fill="white"/>
</clipPath>
</defs>
</svg>
