<svg width="36" height="36" viewBox="0 0 36 36" fill="none" xmlns="http://www.w3.org/2000/svg">
<g clip-path="url(#clip0_20_4)">
<path d="M21.7 16V16C19.6565 16 18 17.6565 18 19.7V20.5125C18 23.0047 20.0203 25.025 22.5125 25.025H30.0125C32.767 25.025 35 27.258 35 30.0125V30.0125C35 32.767 32.767 35 30.0125 35H16" stroke="white" stroke-width="1.5" stroke-linecap="round"/>
<path d="M2.63134 29.7673L6.62867 34.0977C6.82877 34.3145 7.17123 34.3145 7.37133 34.0977L11.3687 29.7673C12.4176 28.631 13 27.1413 13 25.5949C13 22.5049 10.4951 20 7.40512 20H6.59488C3.50492 20 1 22.5049 1 25.5949C1 27.1413 1.58244 28.631 2.63134 29.7673Z" stroke="white" stroke-width="1.5" stroke-linecap="round"/>
<path d="M24.6313 10.7673L28.6287 15.0977C28.8288 15.3145 29.1712 15.3145 29.3713 15.0977L33.3687 10.7673C34.4176 9.63098 35 8.1413 35 6.59488C35 3.50492 32.4951 1 29.4051 1H28.5949C25.5049 1 23 3.50492 23 6.59488C23 8.1413 23.5824 9.63098 24.6313 10.7673Z" stroke="white" stroke-width="1.5" stroke-linecap="round"/>
</g>
<defs>
<clipPath id="clip0_20_4">
<rect width="36" height="36" fill="white"/>
</clipPath>
</defs>
</svg>
