<svg width="36" height="36" viewBox="0 0 36 36" fill="none" xmlns="http://www.w3.org/2000/svg">
<path d="M9 29.4444V21.5556C9 20.6964 8.30355 20 7.44444 20H6.5C3.46243 20 1 22.4624 1 25.5C1 28.5376 3.46243 31 6.5 31H7.44444C8.30355 31 9 30.3036 9 29.4444Z" stroke="white" stroke-width="1.5" stroke-linecap="round"/>
<path d="M27 31V21.5556C27 20.6964 27.6964 20 28.5556 20H29.5C32.5376 20 35 22.4624 35 25.5V25.5C35 28.5376 32.5376 31 29.5 31H27ZM27 31H19" stroke="white" stroke-width="1.5" stroke-linecap="round"/>
<path d="M6 20V16C6 9.37258 11.3726 4 18 4V4C24.6274 4 30 9.37258 30 16V20" stroke="white" stroke-width="1.5" stroke-linecap="round"/>
</svg>
