<svg width="838" height="523" viewBox="0 0 838 523" fill="none" xmlns="http://www.w3.org/2000/svg">
<path d="M790.95 96.939C791.702 98.0546 792.378 99.2088 792.977 100.402L792.53 100.626C792.825 101.214 793.101 101.811 793.358 102.418C793.615 103.025 793.851 103.639 794.068 104.26L794.54 104.095C794.979 105.356 795.337 106.644 795.614 107.961L795.125 108.064C795.393 109.336 795.585 110.634 795.702 111.959L796.2 111.915C796.315 113.222 796.359 114.553 796.33 115.907L795.831 115.896C795.804 117.202 795.709 118.531 795.549 119.882L796.045 119.941C795.893 121.229 795.68 122.536 795.409 123.862L794.919 123.762C794.66 125.032 794.345 126.32 793.977 127.626L794.458 127.761C794.102 129.025 793.695 130.304 793.24 131.598L792.768 131.432C792.339 132.649 791.867 133.88 791.35 135.124L791.812 135.316C791.305 136.538 790.756 137.773 790.166 139.02L789.714 138.806C789.162 139.972 788.574 141.148 787.95 142.335L788.393 142.567C787.776 143.741 787.124 144.925 786.437 146.118L786.004 145.869C785.358 146.992 784.681 148.124 783.974 149.265L784.399 149.528C783.703 150.651 782.977 151.783 782.222 152.922L781.805 152.645C781.082 153.738 780.331 154.838 779.554 155.944L779.963 156.232C779.209 157.305 778.43 158.386 777.627 159.472L777.225 159.175C776.432 160.246 775.616 161.324 774.776 162.408L775.171 162.714C774.375 163.741 773.558 164.773 772.719 165.811L772.33 165.497C771.494 166.531 770.637 167.571 769.759 168.617L770.141 168.938C769.295 169.946 768.429 170.958 767.545 171.974L767.168 171.646C766.306 172.636 765.426 173.63 764.528 174.629L764.9 174.963C764 175.964 763.082 176.968 762.147 177.977L761.78 177.637C760.896 178.591 759.995 179.548 759.079 180.509L759.44 180.854C758.527 181.812 757.598 182.773 756.653 183.737L756.296 183.388C755.355 184.348 754.399 185.312 753.427 186.279L753.78 186.633C752.856 187.552 751.919 188.474 750.968 189.399L750.619 189.04C749.67 189.964 748.707 190.89 747.73 191.819L748.074 192.181C747.097 193.11 746.106 194.042 745.102 194.977L744.761 194.611C743.808 195.499 742.842 196.388 741.864 197.281L742.201 197.65C741.222 198.543 740.231 199.439 739.228 200.336L738.894 199.964C737.893 200.86 736.879 201.759 735.853 202.66L736.183 203.035C735.196 203.903 734.198 204.772 733.189 205.643L732.862 205.264C731.862 206.127 730.852 206.992 729.832 207.858L730.155 208.239C729.134 209.106 728.101 209.975 727.059 210.846L726.738 210.462C725.718 211.314 724.688 212.167 723.648 213.022L723.965 213.408C722.948 214.244 721.922 215.081 720.886 215.92L720.571 215.531C719.536 216.369 718.492 217.209 717.438 218.049L717.75 218.44C716.695 219.281 715.631 220.124 714.558 220.968L714.249 220.575C713.219 221.385 712.181 222.196 711.134 223.009L711.44 223.404C710.394 224.216 709.338 225.029 708.275 225.843L707.971 225.446C706.908 226.26 705.837 227.075 704.757 227.891L705.059 228.29C703.992 229.096 702.917 229.903 701.834 230.711L701.535 230.31C700.481 231.097 699.419 231.885 698.349 232.673L698.646 233.076C697.575 233.865 696.497 234.655 695.411 235.446L695.117 235.042C694.032 235.832 692.94 236.623 691.84 237.414L692.132 237.82C691.053 238.597 689.966 239.375 688.873 240.153L688.583 239.746C687.508 240.511 686.426 241.277 685.337 242.044L685.625 242.452C684.535 243.219 683.439 243.987 682.336 244.755L682.05 244.345C680.948 245.112 679.838 245.88 678.723 246.649L679.006 247.061C677.913 247.814 676.812 248.568 675.706 249.322L675.424 248.909C674.332 249.653 673.234 250.398 672.13 251.143L672.409 251.558C671.304 252.303 670.193 253.049 669.076 253.796L668.798 253.38C667.682 254.126 666.559 254.872 665.43 255.618L665.706 256.035C664.596 256.769 663.48 257.504 662.359 258.238L662.085 257.82C660.979 258.544 659.868 259.269 658.751 259.993L659.023 260.413C657.905 261.138 656.782 261.863 655.653 262.589L655.383 262.168C654.254 262.893 653.121 263.618 651.981 264.344L652.25 264.765C651.122 265.483 649.99 266.201 648.852 266.919L648.585 266.496C647.467 267.201 646.345 267.906 645.217 268.611L645.482 269.035C644.354 269.741 643.221 270.446 642.082 271.152L641.819 270.727C640.681 271.432 639.538 272.137 638.39 272.842L638.652 273.268C637.506 273.972 636.355 274.676 635.199 275.38L634.939 274.953C633.811 275.639 632.679 276.326 631.543 277.012L631.801 277.44C630.664 278.127 629.522 278.813 628.376 279.499L628.119 279.07C626.973 279.757 625.822 280.442 624.667 281.128L624.922 281.558C623.767 282.244 622.606 282.93 621.442 283.616L621.188 283.185C620.042 283.86 618.892 284.534 617.738 285.208L617.99 285.64C616.845 286.308 615.696 286.977 614.543 287.645L614.292 287.212C613.139 287.88 611.982 288.547 610.821 289.215L611.07 289.648C609.908 290.316 608.742 290.983 607.572 291.65L607.324 291.216C606.158 291.881 604.987 292.545 603.812 293.21L604.058 293.645C602.906 294.296 601.751 294.947 600.591 295.598L600.347 295.161C599.188 295.812 598.025 296.462 596.858 297.111L597.101 297.548C595.934 298.198 594.763 298.848 593.588 299.497L593.346 299.059C592.171 299.708 590.993 300.356 589.811 301.004L590.051 301.443C588.881 302.084 587.706 302.726 586.528 303.367L586.289 302.927C585.125 303.561 583.957 304.194 582.785 304.826L583.022 305.266C581.85 305.899 580.675 306.532 579.495 307.163L579.259 306.723C578.08 307.354 576.898 307.986 575.712 308.616L575.947 309.058C574.76 309.689 573.571 310.319 572.377 310.949L572.144 310.507C570.968 311.127 569.789 311.747 568.607 312.367L568.839 312.81C567.662 313.426 566.483 314.042 565.299 314.657L565.069 314.214C563.886 314.829 562.7 315.443 561.51 316.057L561.74 316.502C560.55 317.116 559.357 317.73 558.161 318.343L557.933 317.898C556.737 318.51 555.538 319.123 554.336 319.734L554.562 320.18C553.379 320.782 552.193 321.383 551.004 321.983L550.779 321.537C549.592 322.136 548.403 322.735 547.21 323.333L547.434 323.78C546.241 324.378 545.045 324.975 543.846 325.572L543.623 325.125C542.425 325.721 541.223 326.317 540.018 326.912L540.24 327.361C539.035 327.956 537.827 328.551 536.616 329.145L536.396 328.696C535.205 329.28 534.012 329.863 532.816 330.446L533.035 330.895C531.838 331.478 530.639 332.06 529.437 332.641L529.22 332.191C528.018 332.772 526.814 333.352 525.607 333.932L525.824 334.382C524.616 334.962 523.406 335.541 522.193 336.119L521.978 335.668C520.766 336.246 519.55 336.823 518.332 337.399L518.546 337.851C517.346 338.419 516.144 338.986 514.939 339.552L514.726 339.1C513.522 339.666 512.315 340.231 511.105 340.795L511.317 341.248C510.107 341.813 508.895 342.376 507.68 342.939L507.469 342.485C506.255 343.048 505.038 343.609 503.818 344.17L504.027 344.625C502.807 345.186 501.585 345.746 500.36 346.305L500.152 345.85C498.943 346.402 497.731 346.953 496.517 347.504L496.724 347.959C495.511 348.509 494.296 349.058 493.079 349.605L492.874 349.149C491.657 349.697 490.438 350.244 489.216 350.79L489.42 351.246C488.199 351.792 486.974 352.337 485.748 352.881L485.545 352.424C484.319 352.968 483.09 353.511 481.86 354.053L482.061 354.511C480.842 355.048 479.62 355.584 478.396 356.12L478.195 355.661C476.976 356.195 475.755 356.727 474.531 357.258L474.73 357.717C473.506 358.248 472.28 358.778 471.051 359.308L470.854 358.849C469.626 359.378 468.395 359.906 467.163 360.433L467.36 360.893C466.127 361.421 464.892 361.947 463.655 362.472L463.46 362.012C462.842 362.275 462.223 362.537 461.604 362.799C460.984 363.061 460.365 363.323 459.747 363.584L459.941 364.044C458.703 364.566 457.465 365.086 456.228 365.604L456.035 365.143C454.799 365.66 453.563 366.175 452.328 366.688L452.52 367.15C451.285 367.663 450.05 368.174 448.817 368.683L448.626 368.221C447.393 368.729 446.16 369.235 444.929 369.739L445.118 370.202C443.882 370.708 442.646 371.212 441.411 371.713L441.223 371.25C439.977 371.756 438.732 372.26 437.488 372.761L437.675 373.225C436.43 373.727 435.187 374.226 433.944 374.723L433.758 374.259C432.516 374.756 431.275 375.25 430.035 375.742L430.219 376.207C428.978 376.699 427.739 377.189 426.5 377.677L426.317 377.212C425.077 377.7 423.837 378.186 422.599 378.669L422.781 379.135C421.527 379.625 420.273 380.113 419.021 380.598L418.841 380.132C417.589 380.617 416.338 381.099 415.089 381.579L415.268 382.046C414.019 382.526 412.77 383.004 411.522 383.48L411.344 383.013C410.097 383.488 408.851 383.961 407.607 384.431L407.784 384.899C406.538 385.37 405.294 385.838 404.051 386.304L403.875 385.836C402.613 386.309 401.353 386.779 400.094 387.247L400.268 387.716C399.009 388.184 397.751 388.65 396.494 389.113L396.321 388.644C395.065 389.107 393.81 389.567 392.557 390.025L392.728 390.495C391.474 390.953 390.222 391.408 388.97 391.861L388.8 391.391C387.549 391.844 386.3 392.295 385.051 392.743L385.22 393.213C383.951 393.669 382.683 394.122 381.417 394.572L381.249 394.101C379.983 394.552 378.719 394.999 377.456 395.444L377.622 395.916C376.359 396.361 375.097 396.804 373.837 397.244L373.672 396.772C372.413 397.211 371.155 397.648 369.899 398.083L370.062 398.556C368.803 398.991 367.546 399.424 366.291 399.854L366.128 399.381C364.852 399.818 363.578 400.253 362.306 400.684L362.466 401.158C361.193 401.59 359.922 402.019 358.653 402.445L358.494 401.971C357.225 402.397 355.958 402.821 354.693 403.242L354.851 403.716C353.585 404.137 352.322 404.555 351.06 404.971L350.904 404.496C349.636 404.913 348.37 405.328 347.106 405.74L347.261 406.215C345.978 406.633 344.697 407.048 343.418 407.461L343.265 406.985C341.986 407.397 340.71 407.806 339.436 408.213L339.588 408.689C338.313 409.096 337.041 409.499 335.77 409.9L335.62 409.423C334.35 409.824 333.082 410.222 331.817 410.616L331.966 411.094C330.686 411.493 329.408 411.89 328.132 412.283L327.985 411.805C326.696 412.203 325.411 412.597 324.127 412.989L324.273 413.467C322.989 413.858 321.707 414.247 320.428 414.632L320.284 414.154C319.005 414.539 317.729 414.921 316.455 415.3L316.598 415.78C315.324 416.159 314.052 416.535 312.783 416.909L312.641 416.429C311.347 416.81 310.055 417.187 308.765 417.562L308.905 418.042C307.611 418.418 306.32 418.79 305.032 419.159L304.894 418.679C303.607 419.048 302.322 419.413 301.04 419.776L301.176 420.257C299.893 420.62 298.613 420.98 297.336 421.336L297.202 420.854C295.914 421.214 294.63 421.57 293.348 421.922L293.481 422.405C292.178 422.763 290.877 423.118 289.58 423.47L289.449 422.988C288.153 423.34 286.859 423.688 285.569 424.033L285.698 424.516C284.407 424.861 283.119 425.203 281.835 425.541L281.708 425.057C280.424 425.395 279.143 425.73 277.865 426.061L277.991 426.545C276.681 426.885 275.374 427.221 274.07 427.554L273.947 427.069C272.642 427.402 271.34 427.732 270.041 428.058L270.163 428.543C268.864 428.869 267.569 429.191 266.277 429.51L266.157 429.024C264.866 429.343 263.578 429.658 262.294 429.969L262.412 430.455C261.104 430.772 259.8 431.085 258.5 431.395L258.384 430.909C257.07 431.221 255.76 431.53 254.454 431.835L254.568 432.322C253.261 432.627 251.959 432.929 250.66 433.226L250.548 432.739C249.251 433.036 247.957 433.33 246.667 433.619L246.776 434.107C245.468 434.401 244.164 434.69 242.865 434.976L242.757 434.488C241.436 434.778 240.118 435.065 238.806 435.347L238.911 435.836C237.597 436.118 236.288 436.396 234.984 436.67L234.881 436.181C233.577 436.455 232.278 436.725 230.983 436.99L231.084 437.48C229.772 437.749 228.465 438.014 227.162 438.275L227.064 437.784C225.736 438.05 224.412 438.312 223.094 438.569L223.189 439.059C221.87 439.316 220.556 439.569 219.247 439.817L219.154 439.326C217.845 439.574 216.542 439.817 215.244 440.056L215.335 440.548C214.015 440.791 212.7 441.03 211.391 441.263L211.303 440.771C209.969 441.009 208.641 441.243 207.318 441.471L207.403 441.964C206.08 442.193 204.762 442.417 203.45 442.636L203.368 442.142C202.057 442.361 200.752 442.575 199.453 442.784L199.532 443.278C198.199 443.493 196.871 443.702 195.55 443.907L195.473 443.413C194.136 443.62 192.805 443.821 191.481 444.018L191.555 444.512C190.23 444.709 188.911 444.9 187.599 445.086L187.529 444.591C186.217 444.777 184.912 444.958 183.613 445.133L183.68 445.628C182.327 445.811 180.982 445.988 179.644 446.159L179.58 445.663C178.243 445.834 176.913 446 175.591 446.159L175.651 446.656C174.328 446.815 173.012 446.969 171.704 447.117L171.648 446.62C170.31 446.772 168.98 446.917 167.659 447.057L167.711 447.554C166.36 447.696 165.018 447.832 163.684 447.962L163.636 447.464C162.303 447.594 160.98 447.717 159.664 447.834L159.709 448.332C158.381 448.45 157.062 448.561 155.752 448.666L155.712 448.168C154.351 448.277 153.001 448.378 151.66 448.473L151.695 448.972C150.352 449.067 149.019 449.155 147.697 449.236L147.666 448.737C146.345 448.818 145.034 448.892 143.732 448.958L143.758 449.458C142.388 449.528 141.029 449.59 139.682 449.645L139.661 449.145C138.315 449.199 136.979 449.246 135.655 449.285L135.67 449.785C134.344 449.823 133.03 449.854 131.727 449.877L131.718 449.377C130.348 449.402 128.99 449.417 127.646 449.424L127.648 449.924C126.298 449.93 124.961 449.928 123.637 449.917L123.642 449.417C122.314 449.406 121 449.386 119.699 449.357L119.688 449.857C118.313 449.826 116.953 449.785 115.608 449.735L115.627 449.235C114.285 449.184 112.958 449.124 111.648 449.053L111.621 449.552C110.275 449.479 108.946 449.396 107.634 449.302L107.669 448.804C106.308 448.706 104.964 448.598 103.639 448.477L103.594 448.975C102.266 448.855 100.956 448.723 99.6644 448.579L99.7197 448.082C98.3567 447.931 97.0147 447.767 95.6939 447.589L95.6274 448.085C94.2882 447.905 92.9705 447.712 91.6748 447.506L91.7534 447.012C90.4178 446.799 89.1058 446.573 87.8177 446.332L87.7258 446.823C86.3829 446.572 85.0656 446.305 83.7744 446.023L83.8811 445.535C82.57 445.248 81.2863 444.946 80.0302 444.628L79.9074 445.112C78.573 444.774 77.2694 444.418 75.9971 444.044L76.1382 443.564C74.852 443.185 73.5983 442.789 72.3777 442.373L72.2167 442.846C70.9108 442.402 69.6421 441.936 68.4113 441.449L68.5952 440.984C67.3425 440.489 66.1298 439.971 64.9577 439.431L64.7486 439.886C63.5026 439.312 62.3015 438.713 61.1463 438.089L61.3839 437.649C60.1903 437.005 59.0468 436.333 57.9542 435.635L57.6851 436.057C56.5447 435.328 55.4585 434.571 54.4273 433.784L54.7307 433.386C53.6492 432.561 52.6298 431.703 51.6737 430.814L51.3331 431.18C50.3415 430.257 49.4162 429.3 48.5585 428.307L48.9368 427.98C48.0673 426.974 47.2688 425.932 46.5425 424.854L46.1278 425.134C45.3761 424.018 44.7 422.864 44.101 421.671L44.5479 421.446C44.2528 420.859 43.9768 420.261 43.72 419.654C43.4632 419.048 43.2267 418.434 43.0103 417.813L42.5381 417.978C42.0987 416.717 41.7409 415.428 41.4635 414.112L41.9527 414.009C41.6846 412.737 41.4926 411.438 41.3758 410.114L40.8777 410.158C40.7625 408.851 40.7194 407.52 40.7475 406.166L41.2474 406.176C41.2744 404.871 41.3685 403.542 41.5289 402.191L41.0324 402.132C41.1853 400.844 41.3977 399.536 41.6688 398.211L42.1587 398.311C42.4184 397.041 42.7327 395.752 43.101 394.447L42.6198 394.311C42.9762 393.048 43.3826 391.769 43.8383 390.475L44.3099 390.641C44.7385 389.424 45.2112 388.193 45.7276 386.948L45.2658 386.757C45.7732 385.534 46.3222 384.299 46.9123 383.052L47.3642 383.266C47.9158 382.101 48.5038 380.925 49.1276 379.738L48.6851 379.505C49.3022 378.331 49.9541 377.148 50.6404 375.954L51.0738 376.204C51.7198 375.08 52.3966 373.948 53.1038 372.808L52.6788 372.544C53.3753 371.421 54.101 370.29 54.8557 369.151L55.2725 369.427C55.9963 368.335 56.747 367.235 57.5242 366.128L57.1151 365.841C57.8691 364.767 58.6479 363.687 59.4513 362.601L59.8533 362.898C60.6457 361.826 61.462 360.748 62.3022 359.665L61.907 359.358C62.7031 358.331 63.5204 357.299 64.3587 356.262L64.7476 356.576C65.5839 355.541 66.4411 354.501 67.3192 353.456L66.9364 353.134C67.7828 352.127 68.6484 351.115 69.5331 350.099L69.9103 350.427C70.772 349.437 71.652 348.442 72.5499 347.444L72.1781 347.109C73.0778 346.109 73.9955 345.104 74.931 344.096L75.2975 344.436C76.1822 343.482 77.0828 342.525 77.9993 341.564L77.6375 341.219C78.551 340.261 79.4803 339.3 80.425 338.335L80.7822 338.685C81.723 337.725 82.6793 336.761 83.6509 335.794L83.2982 335.439C84.2217 334.52 85.1589 333.598 86.1099 332.674L86.4584 333.032C87.408 332.109 88.3712 331.183 89.348 330.254L89.0034 329.891C89.9808 328.962 90.9716 328.03 91.9758 327.096L92.3165 327.462C93.2702 326.574 94.2361 325.684 95.214 324.792L94.877 324.423C95.8561 323.529 96.8471 322.634 97.8501 321.736L98.1836 322.109C99.1853 321.212 100.199 320.314 101.225 319.413L100.895 319.037C101.882 318.17 102.88 317.301 103.889 316.43L104.216 316.808C105.216 315.945 106.226 315.081 107.246 314.215L106.923 313.833C107.944 312.966 108.977 312.097 110.019 311.227L110.34 311.611C111.36 310.759 112.39 309.906 113.43 309.051L113.113 308.665C114.13 307.829 115.156 306.991 116.192 306.153L116.507 306.541C117.542 305.703 118.586 304.864 119.64 304.023L119.328 303.633C120.383 302.791 121.446 301.948 122.52 301.104L122.829 301.497C123.859 300.687 124.897 299.876 125.944 299.064L125.637 298.669C126.684 297.857 127.74 297.043 128.803 296.229L129.107 296.626C130.17 295.812 131.241 294.998 132.321 294.182L132.019 293.783C133.086 292.977 134.161 292.17 135.243 291.362L135.542 291.763C136.597 290.976 137.659 290.188 138.729 289.399L138.432 288.997C139.503 288.208 140.581 287.418 141.667 286.627L141.961 287.031C143.046 286.241 144.138 285.45 145.238 284.658L144.946 284.252C146.025 283.475 147.111 282.698 148.205 281.919L148.495 282.327C149.57 281.561 150.652 280.795 151.741 280.029L151.453 279.62C152.543 278.853 153.639 278.086 154.742 277.318L155.028 277.728C156.13 276.96 157.239 276.192 158.355 275.424L158.072 275.012C159.165 274.259 160.266 273.505 161.372 272.75L161.654 273.164C162.746 272.419 163.844 271.674 164.948 270.929L164.669 270.515C165.774 269.769 166.885 269.023 168.002 268.277L168.28 268.693C169.396 267.947 170.519 267.201 171.648 266.454L171.372 266.037C172.482 265.303 173.598 264.569 174.719 263.834L174.993 264.253C176.099 263.528 177.21 262.804 178.327 262.079L178.055 261.66C179.173 260.935 180.296 260.209 181.425 259.484L181.695 259.905C182.824 259.18 183.957 258.454 185.096 257.729L184.828 257.307C185.955 256.589 187.088 255.872 188.226 255.154L188.493 255.576C189.611 254.871 190.733 254.166 191.861 253.461L191.596 253.037C192.724 252.332 193.857 251.626 194.996 250.921L195.259 251.346C196.397 250.641 197.54 249.936 198.688 249.231L198.426 248.805C199.572 248.101 200.723 247.397 201.879 246.693L202.139 247.12C203.267 246.433 204.399 245.747 205.535 245.061L205.277 244.633C206.414 243.946 207.556 243.26 208.702 242.573L208.959 243.002C210.105 242.316 211.256 241.63 212.411 240.944L212.156 240.514C213.311 239.828 214.471 239.142 215.636 238.457L215.89 238.887C217.035 238.213 218.185 237.539 219.34 236.865L219.088 236.433C220.233 235.764 221.382 235.096 222.535 234.428L222.786 234.861C223.939 234.193 225.096 233.525 226.257 232.858L226.008 232.424C227.17 231.757 228.336 231.089 229.506 230.422L229.754 230.857C230.92 230.192 232.091 229.527 233.266 228.863L233.02 228.428C234.171 227.777 235.327 227.126 236.487 226.475L236.731 226.911C237.89 226.261 239.053 225.611 240.22 224.961L239.977 224.524C241.144 223.875 242.315 223.225 243.49 222.576L243.732 223.014C244.907 222.365 246.085 221.716 247.267 221.068L247.027 220.63C248.197 219.988 249.372 219.347 250.55 218.706L250.789 219.145C251.953 218.512 253.121 217.879 254.293 217.246L254.055 216.806C255.228 216.173 256.403 215.541 257.583 214.909L257.819 215.35C258.998 214.718 260.18 214.087 261.366 213.456L261.131 213.015C262.318 212.384 263.507 211.754 264.701 211.124L264.934 211.566C266.11 210.945 267.289 210.325 268.471 209.706L268.239 209.263C269.415 208.647 270.595 208.031 271.779 207.415L272.009 207.859C273.192 207.244 274.378 206.629 275.568 206.015L275.338 205.571C276.528 204.957 277.721 204.343 278.917 203.73L279.145 204.175C280.341 203.562 281.54 202.95 282.742 202.338L282.516 201.893C283.699 201.291 284.885 200.69 286.074 200.089L286.299 200.536C287.486 199.936 288.675 199.338 289.868 198.74L289.644 198.293C290.837 197.695 292.033 197.097 293.232 196.5L293.455 196.948C294.653 196.351 295.855 195.755 297.059 195.16L296.838 194.712C298.043 194.117 299.251 193.522 300.462 192.928L300.682 193.377C301.873 192.793 303.066 192.209 304.262 191.627L304.043 191.177C305.24 190.595 306.439 190.013 307.641 189.431L307.858 189.882C309.06 189.301 310.264 188.72 311.471 188.141L311.254 187.69C312.462 187.11 313.672 186.532 314.885 185.953L315.1 186.405C316.312 185.827 317.528 185.25 318.745 184.673L318.532 184.221C319.732 183.654 320.934 183.086 322.139 182.52L322.352 182.973C323.556 182.407 324.763 181.842 325.973 181.278L325.761 180.824C326.971 180.26 328.183 179.696 329.398 179.134L329.608 179.587C330.823 179.025 332.04 178.463 333.26 177.902L333.051 177.448C334.271 176.887 335.493 176.327 336.718 175.768L336.926 176.222C338.135 175.67 339.347 175.119 340.561 174.569L340.354 174.113C341.567 173.564 342.782 173.015 343.999 172.467L344.204 172.923C345.421 172.375 346.64 171.829 347.861 171.283L347.657 170.826C348.879 170.28 350.104 169.735 351.33 169.191L351.533 169.648C352.759 169.104 353.988 168.561 355.218 168.019L355.017 167.562C356.236 167.024 357.458 166.488 358.682 165.953L358.882 166.411C360.102 165.878 361.323 165.346 362.547 164.815L362.348 164.356C363.572 163.825 364.798 163.294 366.026 162.765L366.224 163.224C367.452 162.695 368.682 162.166 369.915 161.639L369.718 161.179C370.951 160.652 372.186 160.126 373.423 159.6L373.618 160.06C374.236 159.798 374.855 159.535 375.474 159.273C376.093 159.011 376.712 158.75 377.331 158.489L377.137 158.028C378.375 157.506 379.613 156.986 380.85 156.469L381.043 156.93C382.279 156.412 383.515 155.897 384.75 155.384L384.558 154.922C385.793 154.409 387.028 153.898 388.261 153.39L388.452 153.852C389.685 153.343 390.918 152.837 392.149 152.333L391.96 151.87C393.196 151.364 394.432 150.861 395.666 150.359L395.855 150.822C397.101 150.316 398.346 149.813 399.59 149.311L399.403 148.847C400.647 148.346 401.891 147.847 403.134 147.35L403.319 147.814C404.562 147.317 405.803 146.823 407.043 146.33L406.859 145.866C408.1 145.373 409.339 144.883 410.578 144.396L410.761 144.861C412.001 144.373 413.241 143.887 414.479 143.403L414.297 142.937C415.551 142.447 416.804 141.96 418.057 141.475L418.237 141.941C419.489 141.456 420.739 140.973 421.989 140.493L421.809 140.027C423.059 139.546 424.308 139.068 425.555 138.593L425.734 139.06C426.981 138.585 428.226 138.112 429.471 137.641L429.294 137.174C430.54 136.703 431.784 136.234 433.027 135.768L433.203 136.237C434.464 135.764 435.725 135.293 436.984 134.825L436.81 134.357C438.069 133.888 439.327 133.423 440.584 132.96L440.757 133.429C442.013 132.966 443.268 132.505 444.521 132.048L444.35 131.578C445.604 131.12 446.856 130.664 448.107 130.211L448.278 130.681C449.529 130.228 450.778 129.778 452.026 129.33L451.858 128.859C453.127 128.404 454.395 127.951 455.661 127.5L455.829 127.971C457.095 127.521 458.359 127.073 459.622 126.628L459.456 126.157C460.719 125.712 461.981 125.269 463.241 124.829L463.406 125.301C464.665 124.861 465.923 124.424 467.179 123.99L467.016 123.517C468.275 123.082 469.532 122.649 470.787 122.219L470.949 122.692C472.226 122.254 473.5 121.82 474.772 121.388L474.612 120.915C475.884 120.483 477.156 120.054 478.425 119.627L478.584 120.101C479.853 119.675 481.12 119.252 482.385 118.831L482.227 118.356C483.493 117.935 484.756 117.517 486.018 117.102L486.174 117.577C487.442 117.159 488.708 116.745 489.972 116.333L489.817 115.858C491.1 115.44 492.381 115.024 493.66 114.612L493.813 115.088C495.091 114.676 496.368 114.266 497.642 113.86L497.49 113.384C498.765 112.977 500.037 112.573 501.308 112.173L501.458 112.649C502.728 112.249 503.995 111.851 505.261 111.456L505.112 110.979C506.392 110.579 507.67 110.183 508.946 109.789L509.093 110.267C510.381 109.87 511.667 109.475 512.951 109.084L512.805 108.606C514.089 108.214 515.371 107.826 516.65 107.44L516.794 107.919C518.073 107.534 519.349 107.151 520.623 106.772L520.48 106.293C521.754 105.914 523.026 105.537 524.295 105.164L524.436 105.644C525.731 105.263 527.023 104.885 528.313 104.511L528.173 104.031C529.467 103.655 530.758 103.283 532.046 102.913L532.184 103.394C533.471 103.025 534.756 102.659 536.038 102.296L535.902 101.815C537.185 101.453 538.465 101.093 539.742 100.737L539.876 101.218C541.163 100.859 542.448 100.503 543.73 100.15L543.597 99.668C544.9 99.3094 546.201 98.9541 547.498 98.6022L547.629 99.0848C548.925 98.7331 550.219 98.3847 551.509 98.0398L551.38 97.5568C552.671 97.2117 553.958 96.87 555.243 96.5317L555.37 97.0153C556.654 96.6771 557.935 96.3425 559.213 96.0112L559.087 95.5272C560.397 95.1874 561.704 94.8513 563.007 94.5188L563.131 95.0032C564.436 94.6702 565.738 94.3407 567.037 94.0149L566.915 93.53C568.214 93.204 569.509 92.8816 570.801 92.5629L570.921 93.0483C572.212 92.7297 573.5 92.4148 574.784 92.1035L574.666 91.6175C575.974 91.3004 577.278 90.9871 578.578 90.6776L578.694 91.164C580.008 90.8512 581.318 90.5423 582.624 90.2373L582.51 89.7504C583.817 89.4452 585.119 89.1438 586.418 88.8463L586.529 89.3337C587.827 89.0364 589.121 88.743 590.411 88.4534L590.302 87.9656C591.61 87.6719 592.914 87.3822 594.213 87.0966L594.321 87.5849C595.642 87.2944 596.959 87.008 598.272 86.7258L598.167 86.237C599.481 85.9546 600.79 85.6763 602.094 85.4023L602.197 85.8916C603.501 85.6176 604.8 85.3479 606.095 85.0823L605.994 84.5925C607.306 84.3233 608.613 84.0584 609.915 83.7978L610.014 84.2881C611.342 84.0223 612.666 83.7609 613.984 83.504L613.889 83.0132C615.208 82.7561 616.522 82.5035 617.831 82.2554L617.924 82.7467C619.233 82.4987 620.536 82.2552 621.834 82.0162L621.743 81.5245C623.063 81.2814 624.378 81.0429 625.687 80.8091L625.775 81.3014C627.109 81.0632 628.437 80.8298 629.76 80.6013L629.675 80.1086C630.998 79.8799 632.316 79.656 633.628 79.437L633.71 79.9302C635.021 79.7114 636.326 79.4974 637.625 79.2882L637.545 78.7946C638.879 78.5799 640.207 78.3703 641.528 78.1658L641.605 78.6599C642.942 78.453 644.272 78.2514 645.596 78.055L645.523 77.5604C646.848 77.3639 648.167 77.1727 649.479 76.9867L649.549 77.4817C650.861 77.2957 652.166 77.1151 653.464 76.9397L653.398 76.4442C654.751 76.2615 656.096 76.0845 657.434 75.9133L657.498 76.4092C658.835 76.2382 660.164 76.0729 661.487 75.9133L661.427 75.4169C662.75 75.2573 664.066 75.1034 665.374 74.9553L665.43 75.4521C666.768 75.3007 668.098 75.1553 669.419 75.016L669.367 74.5188C670.718 74.3764 672.06 74.2404 673.394 74.1107L673.442 74.6084C674.774 74.4789 676.098 74.3557 677.413 74.2389L677.369 73.7409C678.697 73.623 680.016 73.5115 681.326 73.4066L681.366 73.905C682.727 73.796 684.077 73.6941 685.418 73.5992L685.383 73.1004C686.726 73.0054 688.058 72.9174 689.381 72.8365L689.412 73.3356C690.733 73.2548 692.044 73.181 693.346 73.1144L693.32 72.615C694.69 72.5448 696.049 72.4825 697.396 72.428L697.417 72.9275C698.763 72.8731 700.099 72.8265 701.423 72.7877L701.408 72.2879C702.734 72.2491 704.048 72.2182 705.351 72.1952L705.36 72.6952C706.73 72.671 708.088 72.6556 709.432 72.6489L709.43 72.1489C710.78 72.1423 712.117 72.1445 713.44 72.1555L713.436 72.6555C714.764 72.6666 716.078 72.6867 717.379 72.7157L717.39 72.2159C718.765 72.2466 720.125 72.2873 721.47 72.338L721.451 72.8377C722.793 72.8883 724.12 72.949 725.43 73.0198L725.457 72.5205C726.803 72.5931 728.132 72.6763 729.444 72.7701L729.408 73.2688C730.77 73.3661 732.113 73.4749 733.439 73.5951L733.484 73.0971C734.812 73.2176 736.122 73.3497 737.413 73.4932L737.358 73.9902C738.721 74.1416 740.063 74.306 741.384 74.4833L741.451 73.9877C742.79 74.1675 744.107 74.3605 745.403 74.5668L745.324 75.0606C746.66 75.2732 747.972 75.5 749.26 75.741L749.352 75.2495C750.695 75.5007 752.012 75.7673 753.304 76.0494L753.197 76.5379C754.508 76.8243 755.792 77.1267 757.048 77.445L757.17 76.9603C758.505 77.2985 759.809 77.6547 761.081 78.0291L760.94 78.5087C762.226 78.8872 763.48 79.284 764.7 79.6995L764.861 79.2261C766.167 79.6706 767.436 80.1362 768.667 80.6232L768.483 81.0881C769.735 81.5838 770.948 82.1015 772.12 82.6412L772.329 82.187C773.575 82.7608 774.776 83.3595 775.932 83.9834L775.694 84.4234C776.888 85.068 778.031 85.7392 779.124 86.4371L779.393 86.0157C780.533 86.7441 781.619 87.5018 782.651 88.2888L782.347 88.6863C783.429 89.5118 784.448 90.3694 785.404 91.259L785.745 90.893C786.736 91.8156 787.662 92.7731 788.519 93.7656L788.141 94.0925C789.011 95.0986 789.809 96.1405 790.535 97.2184L790.95 96.939Z" stroke="#C6CFDC" stroke-opacity="0.6" stroke-dasharray="4 4"/>
<path d="M826.418 255.016C826.675 256.336 826.848 257.663 826.935 258.995L826.436 259.027C826.479 259.683 826.5 260.341 826.5 261C826.5 261.659 826.479 262.316 826.436 262.972L826.935 263.005C826.848 264.337 826.675 265.663 826.418 266.984L825.927 266.888C825.678 268.164 825.349 269.435 824.941 270.7L825.416 270.854C825.013 272.102 824.534 273.344 823.981 274.58L823.524 274.376C822.991 275.568 822.386 276.755 821.712 277.937L822.146 278.185C821.503 279.311 820.798 280.432 820.032 281.548L819.62 281.265C818.885 282.333 818.094 283.397 817.246 284.456L817.636 284.768C816.816 285.793 815.943 286.813 815.019 287.827L814.649 287.49C813.78 288.444 812.865 289.393 811.905 290.338L812.255 290.694C811.312 291.622 810.325 292.546 809.295 293.464L808.963 293.091C808 293.949 807 294.803 805.963 295.653L806.28 296.04C805.255 296.88 804.193 297.716 803.096 298.548L802.794 298.149C801.761 298.932 800.697 299.711 799.601 300.485L799.89 300.894C798.81 301.657 797.701 302.416 796.562 303.17L796.286 302.754C795.194 303.478 794.074 304.198 792.927 304.914L793.192 305.338C792.079 306.033 790.94 306.724 789.777 307.412L789.523 306.981C788.375 307.659 787.204 308.334 786.008 309.005L786.252 309.441C785.119 310.076 783.964 310.708 782.787 311.337L782.552 310.896C781.378 311.523 780.183 312.147 778.967 312.767L779.195 313.212C778.023 313.81 776.831 314.405 775.62 314.996L775.401 314.547C774.221 315.123 773.023 315.696 771.807 316.265L772.019 316.718C770.801 317.289 769.564 317.856 768.31 318.421L768.105 317.965C766.918 318.498 765.716 319.029 764.497 319.557L764.696 320.015C763.481 320.541 762.251 321.065 761.005 321.585L760.812 321.123C759.572 321.641 758.315 322.156 757.044 322.668L757.23 323.132C756.022 323.618 754.799 324.102 753.563 324.583L753.382 324.117C752.148 324.597 750.9 325.075 749.638 325.549L749.814 326.017C748.552 326.492 747.276 326.965 745.987 327.434L745.816 326.964C744.592 327.41 743.356 327.853 742.107 328.293L742.274 328.765C741.024 329.206 739.762 329.644 738.489 330.08L738.327 329.607C737.055 330.042 735.771 330.475 734.476 330.905L734.633 331.379C733.386 331.793 732.128 332.205 730.859 332.613L730.705 332.138C729.449 332.542 728.182 332.945 726.904 333.345L727.053 333.822C725.775 334.223 724.485 334.62 723.186 335.016L723.04 334.537C721.769 334.924 720.488 335.309 719.197 335.69L719.339 336.17C718.076 336.543 716.805 336.914 715.524 337.283L715.385 336.803C714.106 337.171 712.817 337.537 711.519 337.9L711.654 338.382C710.354 338.746 709.046 339.107 707.729 339.466L707.598 338.984C706.333 339.328 705.061 339.671 703.78 340.011L703.909 340.494C702.628 340.834 701.339 341.172 700.042 341.507L699.917 341.023C698.621 341.358 697.317 341.691 696.005 342.022L696.127 342.507C694.831 342.833 693.526 343.158 692.214 343.48L692.095 342.994C690.817 343.308 689.532 343.619 688.239 343.929L688.356 344.415C687.062 344.725 685.762 345.032 684.454 345.337L684.34 344.85C683.033 345.155 681.719 345.458 680.398 345.758L680.509 346.246C679.212 346.541 677.908 346.834 676.598 347.124L676.489 346.636C675.201 346.922 673.906 347.205 672.604 347.487L672.71 347.976C671.408 348.257 670.099 348.537 668.784 348.814L668.681 348.325C667.366 348.602 666.046 348.877 664.718 349.15L664.819 349.64C663.518 349.908 662.211 350.173 660.898 350.437L660.8 349.946C659.504 350.206 658.202 350.464 656.895 350.72L656.991 351.211C655.683 351.467 654.369 351.721 653.049 351.972L652.955 351.481C651.636 351.733 650.312 351.983 648.981 352.23L649.073 352.722C647.765 352.965 646.451 353.207 645.132 353.446L645.043 352.954C643.742 353.19 642.436 353.424 641.125 353.656L641.212 354.148C639.9 354.381 638.583 354.611 637.261 354.839L637.176 354.346C635.854 354.574 634.527 354.8 633.196 355.024L633.278 355.517C631.96 355.739 630.637 355.959 629.309 356.176L629.229 355.683C627.925 355.897 626.616 356.108 625.303 356.318L625.382 356.812C624.068 357.022 622.749 357.23 621.426 357.436L621.349 356.942C620.026 357.148 618.699 357.352 617.367 357.554L617.442 358.048C616.112 358.25 614.778 358.45 613.439 358.647L613.366 358.153C612.06 358.345 610.75 358.536 609.436 358.725L609.507 359.22C608.192 359.409 606.873 359.597 605.55 359.782L605.48 359.287C604.158 359.472 602.831 359.655 601.5 359.837L601.567 360.332C600.235 360.514 598.9 360.693 597.56 360.871L597.494 360.375C596.176 360.55 594.854 360.722 593.528 360.893L593.592 361.389C592.277 361.559 590.959 361.726 589.636 361.892L589.574 361.396C588.252 361.562 586.926 361.725 585.596 361.887L585.657 362.384C584.327 362.546 582.993 362.706 581.655 362.864L581.596 362.368C580.263 362.525 578.926 362.681 577.585 362.835L577.642 363.332C576.328 363.483 575.01 363.632 573.688 363.779L573.633 363.282C572.312 363.429 570.988 363.575 569.66 363.718L569.714 364.215C568.386 364.359 567.054 364.5 565.719 364.64L565.667 364.143C564.332 364.283 562.994 364.421 561.653 364.557L561.703 365.054C560.375 365.189 559.044 365.322 557.709 365.453L557.66 364.955C556.341 365.085 555.019 365.213 553.693 365.338L553.74 365.836C552.414 365.962 551.085 366.086 549.753 366.209L549.707 365.711C548.375 365.833 547.04 365.954 545.702 366.072L545.747 366.57C544.408 366.689 543.067 366.806 541.722 366.921L541.68 366.423C540.355 366.536 539.028 366.647 537.698 366.757L537.739 367.255C536.415 367.365 535.088 367.472 533.759 367.577L533.719 367.079C532.39 367.185 531.058 367.288 529.724 367.39L529.762 367.889C528.427 367.991 527.089 368.091 525.748 368.189L525.712 367.691C524.372 367.789 523.029 367.885 521.683 367.98L521.718 368.479C520.394 368.572 519.068 368.663 517.739 368.753L517.705 368.254C516.379 368.344 515.05 368.431 513.719 368.517L513.751 369.016C512.419 369.102 511.085 369.186 509.748 369.268L509.717 368.769C508.381 368.852 507.042 368.932 505.701 369.011L505.73 369.51C504.388 369.589 503.044 369.666 501.697 369.741L501.669 369.242C500.345 369.316 499.019 369.388 497.69 369.458L497.717 369.957C496.388 370.028 495.057 370.096 493.724 370.163L493.699 369.664C492.366 369.731 491.031 369.796 489.693 369.859L489.717 370.358C488.379 370.422 487.039 370.483 485.697 370.543L485.674 370.043C484.333 370.103 482.989 370.161 481.642 370.217L481.663 370.717C480.337 370.772 479.008 370.826 477.678 370.877L477.658 370.378C476.329 370.429 474.997 370.48 473.663 370.528L473.681 371.027C472.347 371.076 471.011 371.122 469.673 371.167L469.656 370.667C468.318 370.712 466.979 370.755 465.637 370.796L465.652 371.296C464.31 371.337 462.966 371.377 461.62 371.414L461.606 370.914C460.277 370.952 458.947 370.987 457.614 371.021L457.627 371.521C456.296 371.554 454.963 371.586 453.629 371.616L453.617 371.116C452.283 371.146 450.948 371.175 449.61 371.201L449.62 371.701C448.282 371.728 446.942 371.753 445.6 371.776L445.592 371.276C444.251 371.299 442.908 371.32 441.563 371.34L441.57 371.84C440.238 371.859 438.904 371.877 437.568 371.893L437.562 371.393C436.231 371.409 434.899 371.423 433.565 371.435L433.569 371.935C432.235 371.947 430.899 371.958 429.561 371.967L429.558 371.467C428.221 371.476 426.882 371.483 425.542 371.488L425.544 371.988C424.203 371.993 422.861 371.997 421.517 371.999L421.516 371.499C420.845 371.5 420.172 371.5 419.5 371.5C418.828 371.5 418.156 371.5 417.484 371.499L417.484 371.999C416.14 371.997 414.797 371.993 413.457 371.988L413.459 371.488C412.118 371.483 410.779 371.476 409.442 371.467L409.439 371.967C408.101 371.958 406.765 371.947 405.431 371.935L405.436 371.435C404.102 371.423 402.769 371.409 401.439 371.393L401.433 371.893C400.097 371.877 398.763 371.859 397.43 371.84L397.438 371.34C396.093 371.32 394.75 371.299 393.409 371.276L393.4 371.776C392.059 371.753 390.719 371.728 389.381 371.701L389.391 371.201C388.053 371.175 386.717 371.146 385.383 371.116L385.372 371.616C384.037 371.586 382.705 371.554 381.374 371.521L381.386 371.021C380.054 370.987 378.723 370.952 377.395 370.914L377.381 371.414C376.034 371.377 374.69 371.337 373.348 371.296L373.363 370.796C372.022 370.755 370.682 370.712 369.344 370.667L369.328 371.167C367.989 371.122 366.653 371.076 365.319 371.027L365.337 370.528C364.003 370.48 362.672 370.429 361.342 370.378L361.323 370.877C359.992 370.826 358.664 370.772 357.337 370.717L357.358 370.217C356.012 370.161 354.668 370.103 353.326 370.043L353.304 370.543C351.961 370.483 350.621 370.422 349.284 370.358L349.307 369.859C347.97 369.796 346.635 369.731 345.302 369.664L345.277 370.163C343.943 370.096 342.612 370.028 341.284 369.957L341.31 369.458C339.981 369.388 338.655 369.316 337.331 369.242L337.303 369.741C335.956 369.666 334.612 369.589 333.27 369.51L333.3 369.011C331.958 368.932 330.62 368.852 329.283 368.769L329.252 369.268C327.916 369.186 326.581 369.102 325.249 369.016L325.281 368.517C323.95 368.431 322.621 368.344 321.295 368.254L321.261 368.753C319.932 368.663 318.606 368.572 317.282 368.479L317.317 367.98C315.972 367.885 314.629 367.789 313.289 367.691L313.252 368.189C311.911 368.091 310.574 367.991 309.239 367.889L309.277 367.39C307.942 367.288 306.61 367.185 305.281 367.079L305.242 367.577C303.912 367.472 302.585 367.365 301.262 367.255L301.303 366.757C299.972 366.647 298.645 366.536 297.321 366.423L297.278 366.921C295.934 366.806 294.592 366.689 293.254 366.57L293.298 366.072C291.96 365.954 290.625 365.833 289.293 365.711L289.248 366.209C287.915 366.086 286.586 365.962 285.26 365.836L285.307 365.339C283.982 365.213 282.659 365.085 281.34 364.955L281.291 365.453C279.956 365.322 278.625 365.189 277.297 365.054L277.347 364.557C276.006 364.421 274.668 364.283 273.333 364.143L273.281 364.64C271.946 364.5 270.615 364.359 269.286 364.215L269.34 363.718C268.012 363.575 266.688 363.429 265.367 363.282L265.312 363.779C263.991 363.632 262.673 363.483 261.358 363.332L261.415 362.835C260.074 362.681 258.737 362.525 257.404 362.368L257.345 362.864C256.007 362.706 254.674 362.546 253.343 362.384L253.404 361.887C252.074 361.726 250.748 361.562 249.426 361.396L249.364 361.892C248.042 361.726 246.723 361.559 245.408 361.389L245.472 360.893C244.146 360.722 242.824 360.55 241.506 360.375L241.441 360.871C240.101 360.693 238.765 360.514 237.433 360.332L237.501 359.837C236.17 359.655 234.843 359.472 233.52 359.287L233.451 359.782C232.127 359.597 230.808 359.409 229.493 359.22L229.565 358.725C228.25 358.536 226.94 358.345 225.635 358.153L225.562 358.647C224.223 358.45 222.888 358.25 221.558 358.048L221.633 357.554C220.301 357.352 218.974 357.148 217.651 356.942L217.575 357.436C216.251 357.23 214.933 357.022 213.619 356.812L213.697 356.318C212.384 356.108 211.076 355.897 209.772 355.683L209.691 356.176C208.363 355.959 207.04 355.739 205.722 355.517L205.805 355.024C204.473 354.8 203.146 354.574 201.825 354.346L201.74 354.839C200.417 354.611 199.1 354.381 197.788 354.148L197.875 353.656C196.564 353.424 195.258 353.19 193.958 352.954L193.868 353.446C192.549 353.207 191.236 352.965 189.927 352.722L190.019 352.23C188.688 351.983 187.364 351.733 186.045 351.481L185.951 351.972C184.631 351.721 183.317 351.467 182.009 351.211L182.105 350.72C180.798 350.464 179.496 350.206 178.2 349.946L178.102 350.437C176.789 350.173 175.482 349.908 174.181 349.64L174.282 349.15C172.955 348.877 171.634 348.602 170.32 348.325L170.216 348.814C168.901 348.537 167.592 348.257 166.29 347.976L166.396 347.487C165.094 347.205 163.799 346.922 162.511 346.636L162.403 347.124C161.092 346.834 159.789 346.541 158.492 346.246L158.603 345.758C157.281 345.458 155.967 345.155 154.66 344.85L154.546 345.337C153.239 345.032 151.938 344.725 150.644 344.415L150.761 343.929C149.468 343.619 148.183 343.308 146.905 342.994L146.786 343.48C145.474 343.158 144.169 342.833 142.873 342.507L142.995 342.022C141.683 341.691 140.379 341.358 139.083 341.023L138.958 341.507C137.661 341.172 136.372 340.834 135.092 340.494L135.22 340.011C133.939 339.671 132.667 339.328 131.403 338.984L131.271 339.466C129.954 339.107 128.646 338.746 127.347 338.382L127.481 337.9C126.183 337.537 124.895 337.171 123.615 336.803L123.477 337.283C122.196 336.914 120.924 336.543 119.662 336.17L119.803 335.691C118.512 335.309 117.231 334.924 115.96 334.537L115.814 335.016C114.515 334.62 113.226 334.223 111.947 333.822L112.096 333.345C110.819 332.945 109.551 332.543 108.295 332.138L108.141 332.613C106.873 332.205 105.615 331.793 104.367 331.379L104.525 330.905C103.229 330.475 101.945 330.042 100.673 329.607L100.512 330.08C99.2381 329.644 97.9764 329.206 96.7266 328.765L96.893 328.293C95.6447 327.853 94.4084 327.41 93.1842 326.964L93.0131 327.434C91.7241 326.965 90.4484 326.492 89.1861 326.018L89.3622 325.55C88.1007 325.075 86.8527 324.597 85.6183 324.117L85.437 324.583C84.2009 324.102 82.9785 323.618 81.7698 323.132L81.9565 322.668C80.6849 322.156 79.4286 321.641 78.1879 321.123L77.9953 321.585C76.7494 321.065 75.519 320.542 74.3044 320.016L74.5031 319.557C73.2846 319.029 72.0821 318.498 70.8957 317.965L70.6906 318.421C69.436 317.857 68.1994 317.289 66.9809 316.718L67.193 316.265C65.9769 315.696 64.779 315.123 63.5995 314.547L63.3801 314.996C62.1693 314.405 60.9777 313.81 59.8056 313.213L60.0328 312.767C58.8168 312.147 57.622 311.523 56.4486 310.896L56.2129 311.337C55.0366 310.708 53.8816 310.076 52.7483 309.441L52.9928 309.005C51.7967 308.334 50.6248 307.66 49.4775 306.982L49.2231 307.412C48.0599 306.725 46.9216 306.033 45.8087 305.338L46.0736 304.914C44.9265 304.198 43.8066 303.478 42.7143 302.754L42.4381 303.171C41.2992 302.416 40.19 301.657 39.1108 300.894L39.3995 300.486C38.3037 299.711 37.2393 298.932 36.2066 298.15L35.9046 298.548C34.8075 297.717 33.7458 296.88 32.72 296.04L33.0369 295.653C31.9998 294.803 31 293.949 30.0378 293.091L29.705 293.464C28.6756 292.546 27.6887 291.623 26.745 290.694L27.0956 290.338C26.1351 289.393 25.22 288.444 24.3509 287.49L23.9813 287.827C23.0574 286.813 22.1847 285.793 21.364 284.769L21.7542 284.456C20.9063 283.397 20.1148 282.333 19.3805 281.265L18.9685 281.548C18.2022 280.433 17.4971 279.312 16.8542 278.185L17.2885 277.937C16.6142 276.755 16.0097 275.568 15.4759 274.377L15.0195 274.581C14.4659 273.345 13.9869 272.102 13.5838 270.854L14.0596 270.7C13.651 269.435 13.3217 268.164 13.0729 266.889L12.5821 266.984C12.3246 265.664 12.1518 264.337 12.0652 263.005L12.5641 262.973C12.5214 262.317 12.5 261.659 12.5 261C12.5 260.341 12.5214 259.684 12.5641 259.028L12.0651 258.995C12.1518 257.663 12.3245 256.337 12.582 255.016L13.0728 255.112C13.3216 253.836 13.6509 252.565 14.0595 251.3L13.5837 251.146C13.9868 249.898 14.4658 248.656 15.0193 247.42L15.4757 247.624C16.0095 246.432 16.614 245.245 17.2883 244.063L16.854 243.815C17.4968 242.689 18.2019 241.568 18.9682 240.452L19.3803 240.735C20.1145 239.667 20.906 238.603 21.754 237.544L21.3637 237.232C22.1845 236.207 23.0572 235.187 23.9811 234.173L24.3507 234.51C25.2197 233.556 26.1348 232.607 27.0953 231.662L26.7447 231.306C27.6884 230.378 28.6753 229.454 29.7047 228.536L30.0375 228.909C30.9997 228.051 31.9995 227.197 33.0365 226.347L32.7196 225.96C33.7454 225.12 34.8072 224.284 35.9043 223.452L36.2063 223.851C37.239 223.068 38.3034 222.289 39.3991 221.515L39.1105 221.106C40.1897 220.343 41.2989 219.584 42.4377 218.83L42.714 219.246C43.8063 218.522 44.9262 217.802 46.0733 217.086L45.8084 216.662C46.9213 215.967 48.0596 215.276 49.2228 214.588L49.4772 215.019C50.6245 214.341 51.7964 213.666 52.9925 212.995L52.748 212.559C53.8813 211.924 55.0363 211.292 56.2126 210.663L56.4483 211.104C57.6217 210.477 58.8165 209.853 60.0325 209.233L59.8053 208.788C60.9774 208.19 62.169 207.595 63.3798 207.004L63.5992 207.453C64.7787 206.877 65.9766 206.304 67.1927 205.735L66.9806 205.282C68.1991 204.711 69.4357 204.144 70.6903 203.579L70.8954 204.035C72.0818 203.502 73.2843 202.971 74.5028 202.443L74.3041 201.985C75.5187 201.459 76.7491 200.935 77.995 200.415L78.1876 200.877C79.4284 200.359 80.6846 199.844 81.9563 199.332L81.7696 198.868C82.9782 198.382 84.2007 197.898 85.4368 197.417L85.6181 197.883C86.8524 197.403 88.1004 196.925 89.3619 196.451L89.1859 195.983C90.4481 195.508 91.7238 195.035 93.0129 194.566L93.1839 195.036C94.4082 194.59 95.6445 194.147 96.8927 193.707L96.7264 193.235C97.9761 192.794 99.2378 192.356 100.511 191.92L100.673 192.393C101.945 191.958 103.229 191.525 104.524 191.095L104.367 190.621C105.614 190.207 106.872 189.795 108.141 189.387L108.295 189.862C109.551 189.457 110.818 189.055 112.096 188.655L111.947 188.178C113.225 187.777 114.515 187.38 115.814 186.984L115.96 187.463C117.231 187.076 118.512 186.691 119.803 186.31L119.661 185.83C120.924 185.457 122.195 185.086 123.476 184.717L123.615 185.197C124.894 184.829 126.183 184.463 127.481 184.1L127.346 183.618C128.646 183.254 129.954 182.893 131.271 182.534L131.402 183.016C132.667 182.672 133.939 182.329 135.22 181.989L135.091 181.506C136.372 181.166 137.661 180.828 138.958 180.493L139.083 180.977C140.379 180.642 141.683 180.309 142.995 179.978L142.873 179.493C144.169 179.167 145.474 178.842 146.786 178.52L146.905 179.006C148.183 178.692 149.468 178.381 150.761 178.071L150.644 177.585C151.938 177.275 153.238 176.968 154.546 176.663L154.66 177.15C155.967 176.845 157.281 176.542 158.602 176.242L158.491 175.754C159.788 175.459 161.092 175.166 162.402 174.876L162.511 175.364C163.799 175.078 165.094 174.795 166.396 174.513L166.29 174.024C167.592 173.743 168.901 173.463 170.216 173.186L170.319 173.675C171.634 173.398 172.954 173.123 174.282 172.85L174.181 172.36C175.482 172.092 176.789 171.827 178.102 171.563L178.2 172.054C179.496 171.794 180.798 171.536 182.105 171.28L182.009 170.789C183.317 170.533 184.631 170.279 185.951 170.028L186.045 170.519C187.364 170.267 188.688 170.017 190.019 169.77L189.927 169.278C191.235 169.035 192.549 168.793 193.868 168.554L193.957 169.046C195.258 168.81 196.564 168.576 197.875 168.344L197.788 167.852C199.1 167.619 200.417 167.389 201.739 167.161L201.824 167.654C203.146 167.426 204.473 167.2 205.804 166.976L205.722 166.483C207.04 166.261 208.363 166.041 209.691 165.824L209.771 166.317C211.075 166.103 212.384 165.892 213.697 165.682L213.618 165.188C214.932 164.978 216.251 164.77 217.574 164.564L217.651 165.058C218.974 164.852 220.301 164.648 221.633 164.446L221.558 163.952C222.888 163.75 224.222 163.55 225.561 163.353L225.634 163.847C226.94 163.655 228.25 163.464 229.564 163.275L229.493 162.78C230.808 162.591 232.127 162.403 233.45 162.218L233.52 162.713C234.842 162.528 236.169 162.345 237.5 162.163L237.433 161.668C238.765 161.486 240.1 161.307 241.44 161.129L241.506 161.625C242.824 161.45 244.146 161.278 245.472 161.107L245.408 160.611C246.723 160.441 248.041 160.274 249.364 160.108L249.426 160.604C250.748 160.438 252.074 160.275 253.404 160.113L253.343 159.616C254.673 159.454 256.007 159.294 257.345 159.136L257.404 159.632C258.737 159.475 260.074 159.319 261.415 159.165L261.358 158.668C262.672 158.517 263.99 158.368 265.312 158.221L265.367 158.718C266.688 158.571 268.012 158.425 269.34 158.282L269.286 157.785C270.614 157.641 271.946 157.5 273.281 157.36L273.333 157.857C274.668 157.717 276.006 157.579 277.347 157.443L277.296 156.946C278.625 156.811 279.956 156.678 281.291 156.547L281.34 157.045C282.659 156.915 283.981 156.787 285.307 156.662L285.26 156.164C286.586 156.038 287.915 155.914 289.247 155.791L289.293 156.289C290.625 156.167 291.96 156.046 293.298 155.928L293.253 155.43C294.592 155.311 295.933 155.194 297.278 155.079L297.32 155.577C298.645 155.464 299.972 155.353 301.302 155.243L301.261 154.745C302.585 154.635 303.912 154.528 305.241 154.423L305.281 154.921C306.61 154.815 307.942 154.712 309.276 154.61L309.238 154.111C310.573 154.009 311.911 153.909 313.252 153.811L313.288 154.309C314.628 154.211 315.971 154.115 317.317 154.02L317.282 153.521C318.606 153.428 319.932 153.337 321.261 153.247L321.295 153.746C322.621 153.656 323.95 153.569 325.281 153.483L325.249 152.984C326.581 152.898 327.915 152.814 329.252 152.732L329.283 153.231C330.619 153.148 331.958 153.068 333.299 152.989L333.27 152.49C334.612 152.411 335.956 152.334 337.303 152.259L337.331 152.758C338.655 152.684 339.981 152.612 341.31 152.542L341.283 152.043C342.612 151.972 343.943 151.904 345.276 151.837L345.301 152.336C346.634 152.269 347.969 152.204 349.307 152.141L349.283 151.642C350.621 151.578 351.961 151.517 353.303 151.457L353.326 151.957C354.667 151.897 356.011 151.839 357.358 151.783L357.337 151.283C358.663 151.228 359.992 151.174 361.322 151.123L361.342 151.622C362.671 151.571 364.003 151.52 365.337 151.472L365.319 150.973C366.653 150.924 367.989 150.878 369.327 150.833L369.344 151.333C370.682 151.288 372.021 151.245 373.363 151.204L373.348 150.704C374.69 150.663 376.034 150.623 377.38 150.586L377.394 151.086C378.723 151.048 380.053 151.013 381.386 150.979L381.373 150.479C382.704 150.446 384.037 150.414 385.371 150.384L385.383 150.884C386.717 150.854 388.052 150.825 389.39 150.799L389.38 150.299C390.718 150.272 392.058 150.247 393.4 150.224L393.408 150.724C394.749 150.701 396.092 150.68 397.437 150.66L397.43 150.16C398.762 150.141 400.097 150.123 401.432 150.107L401.438 150.607C402.769 150.591 404.101 150.577 405.435 150.565L405.431 150.065C406.765 150.053 408.101 150.042 409.439 150.033L409.442 150.533C410.779 150.524 412.118 150.517 413.458 150.512L413.456 150.012C414.797 150.007 416.139 150.003 417.483 150.001L417.484 150.501C418.155 150.5 418.828 150.5 419.5 150.5C420.172 150.5 420.844 150.5 421.516 150.501L421.516 150.001C422.86 150.003 424.203 150.007 425.543 150.012L425.541 150.512C426.882 150.517 428.221 150.524 429.558 150.533L429.561 150.033C430.899 150.042 432.235 150.053 433.569 150.065L433.564 150.565C434.898 150.577 436.231 150.591 437.561 150.607L437.567 150.107C438.903 150.123 440.237 150.141 441.57 150.16L441.562 150.66C442.907 150.68 444.25 150.701 445.591 150.724L445.6 150.224C446.941 150.247 448.281 150.272 449.619 150.299L449.609 150.799C450.947 150.825 452.283 150.854 453.617 150.884L453.628 150.384C454.963 150.414 456.295 150.446 457.626 150.479L457.614 150.979C458.946 151.013 460.277 151.048 461.605 151.086L461.619 150.586C462.966 150.623 464.31 150.663 465.652 150.704L465.637 151.204C466.978 151.245 468.318 151.288 469.656 151.333L469.672 150.833C471.011 150.878 472.347 150.924 473.681 150.973L473.663 151.472C474.997 151.52 476.328 151.571 477.658 151.622L477.677 151.123C479.008 151.174 480.336 151.228 481.663 151.283L481.642 151.783C482.988 151.839 484.332 151.897 485.674 151.957L485.696 151.457C487.039 151.517 488.379 151.578 489.716 151.642L489.693 152.141C491.03 152.204 492.365 152.269 493.698 152.336L493.723 151.837C495.057 151.904 496.388 151.972 497.716 152.043L497.69 152.542C499.019 152.612 500.345 152.684 501.669 152.758L501.697 152.259C503.044 152.334 504.388 152.411 505.73 152.49L505.7 152.989C507.042 153.068 508.38 153.148 509.717 153.231L509.748 152.732C511.084 152.814 512.419 152.898 513.751 152.984L513.719 153.483C515.05 153.569 516.379 153.656 517.705 153.746L517.739 153.247C519.068 153.337 520.394 153.428 521.718 153.521L521.683 154.02C523.028 154.115 524.371 154.211 525.711 154.309L525.748 153.811C527.089 153.909 528.426 154.009 529.761 154.111L529.723 154.61C531.058 154.712 532.39 154.815 533.719 154.921L533.758 154.423C535.088 154.528 536.415 154.635 537.738 154.745L537.697 155.243C539.028 155.353 540.355 155.464 541.679 155.577L541.722 155.079C543.066 155.194 544.408 155.311 545.746 155.43L545.702 155.928C547.04 156.046 548.375 156.167 549.707 156.289L549.752 155.791C551.085 155.914 552.414 156.038 553.74 156.164L553.693 156.661C555.018 156.787 556.341 156.915 557.66 157.045L557.709 156.547C559.044 156.678 560.375 156.811 561.703 156.946L561.653 157.443C562.994 157.579 564.332 157.717 565.667 157.857L565.719 157.36C567.054 157.5 568.385 157.641 569.714 157.785L569.66 158.282C570.988 158.425 572.312 158.571 573.633 158.718L573.688 158.221C575.009 158.368 576.327 158.517 577.642 158.668L577.585 159.165C578.926 159.319 580.263 159.475 581.596 159.632L581.655 159.136C582.992 159.294 584.326 159.454 585.657 159.616L585.596 160.113C586.926 160.274 588.252 160.438 589.574 160.604L589.636 160.108C590.958 160.274 592.277 160.441 593.592 160.611L593.528 161.107C594.854 161.278 596.176 161.45 597.494 161.625L597.559 161.129C598.899 161.307 600.235 161.486 601.567 161.668L601.499 162.163C602.83 162.345 604.157 162.528 605.48 162.713L605.549 162.218C606.873 162.403 608.192 162.591 609.507 162.78L609.435 163.275C610.75 163.464 612.06 163.655 613.365 163.847L613.438 163.353C614.777 163.55 616.112 163.75 617.442 163.952L617.367 164.446C618.699 164.648 620.026 164.852 621.349 165.058L621.425 164.564C622.749 164.77 624.067 164.978 625.381 165.188L625.302 165.682C626.616 165.892 627.924 166.103 629.228 166.317L629.309 165.824C630.637 166.041 631.96 166.261 633.278 166.483L633.195 166.976C634.527 167.2 635.854 167.426 637.175 167.654L637.26 167.161C638.583 167.389 639.9 167.619 641.212 167.852L641.125 168.344C642.436 168.576 643.742 168.81 645.042 169.046L645.132 168.554C646.451 168.793 647.764 169.035 649.073 169.278L648.981 169.77C650.312 170.017 651.636 170.267 652.955 170.519L653.049 170.028C654.369 170.279 655.683 170.533 656.991 170.789L656.895 171.28C658.202 171.536 659.504 171.794 660.8 172.054L660.898 171.563C662.211 171.827 663.518 172.092 664.819 172.36L664.718 172.85C666.045 173.123 667.366 173.398 668.68 173.675L668.784 173.186C670.099 173.463 671.408 173.743 672.71 174.024L672.604 174.513C673.906 174.795 675.201 175.078 676.489 175.364L676.597 174.876C677.908 175.166 679.211 175.459 680.508 175.754L680.397 176.242C681.719 176.542 683.033 176.845 684.34 177.15L684.453 176.663C685.761 176.968 687.062 177.275 688.356 177.585L688.239 178.071C689.532 178.381 690.817 178.692 692.095 179.006L692.214 178.52C693.526 178.842 694.831 179.167 696.127 179.493L696.005 179.978C697.317 180.309 698.621 180.642 699.917 180.977L700.042 180.493C701.339 180.828 702.628 181.166 703.908 181.506L703.78 181.989C705.061 182.329 706.333 182.672 707.597 183.016L707.729 182.534C709.046 182.893 710.354 183.254 711.653 183.618L711.519 184.099C712.817 184.463 714.105 184.829 715.385 185.197L715.523 184.717C716.804 185.086 718.076 185.457 719.338 185.83L719.197 186.309C720.488 186.691 721.769 187.076 723.04 187.463L723.186 186.984C724.485 187.379 725.774 187.777 727.053 188.178L726.904 188.655C728.181 189.055 729.449 189.457 730.705 189.862L730.859 189.387C732.127 189.795 733.385 190.207 734.633 190.621L734.475 191.095C735.771 191.525 737.055 191.958 738.327 192.393L738.488 191.92C739.762 192.356 741.024 192.794 742.273 193.235L742.107 193.707C743.355 194.147 744.592 194.59 745.816 195.036L745.987 194.566C747.276 195.035 748.552 195.507 749.814 195.982L749.638 196.45C750.899 196.925 752.147 197.403 753.382 197.883L753.563 197.417C754.799 197.898 756.021 198.382 757.23 198.868L757.043 199.332C758.315 199.844 759.571 200.359 760.812 200.877L761.005 200.415C762.251 200.935 763.481 201.458 764.696 201.984L764.497 202.443C765.715 202.971 766.918 203.502 768.104 204.035L768.309 203.579C769.564 204.143 770.801 204.711 772.019 205.282L771.807 205.735C773.023 206.304 774.221 206.877 775.401 207.453L775.62 207.004C776.831 207.595 778.022 208.19 779.194 208.787L778.967 209.233C780.183 209.853 781.378 210.477 782.551 211.104L782.787 210.663C783.963 211.292 785.118 211.924 786.252 212.559L786.007 212.995C787.203 213.666 788.375 214.34 789.522 215.018L789.777 214.588C790.94 215.275 792.078 215.967 793.191 216.662L792.926 217.086C794.074 217.802 795.193 218.522 796.286 219.246L796.562 218.829C797.701 219.584 798.81 220.343 799.889 221.106L799.601 221.514C800.696 222.289 801.761 223.068 802.793 223.85L803.095 223.452C804.193 224.283 805.254 225.12 806.28 225.96L805.963 226.347C807 227.197 808 228.051 808.962 228.909L809.295 228.536C810.324 229.454 811.311 230.377 812.255 231.306L811.904 231.662C812.865 232.607 813.78 233.556 814.649 234.51L815.019 234.173C815.943 235.187 816.815 236.207 817.636 237.231L817.246 237.544C818.094 238.603 818.885 239.667 819.619 240.735L820.032 240.452C820.798 241.567 821.503 242.688 822.146 243.815L821.712 244.063C822.386 245.245 822.99 246.432 823.524 247.623L823.98 247.419C824.534 248.655 825.013 249.898 825.416 251.146L824.94 251.3C825.349 252.565 825.678 253.836 825.927 255.111L826.418 255.016Z" stroke="#C6CFDC" stroke-opacity="0.6" stroke-dasharray="4 4"/>
</svg>
